<?xml version="1.0" encoding="utf-8"?><svg xmlns="http://www.w3.org/2000/svg" xmlns:xlink="http://www.w3.org/1999/xlink" width="3000" height="1326" preserveAspectRatio="xMidYMid" viewBox="0 0 3000 1326" style="z-index:1;margin-right:-2px;display:block;background-repeat-y:initial;background-repeat-x:initial;background-color:rgb(241, 242, 243);animation-play-state:paused" ><g transform="translate(1500,663) scale(1,1) translate(-1500,-663)" style="animation-play-state:paused" ><g id="bk-0.49795696850175486" style="animation-play-state:paused" ><path d="M1446 731L1232 685L1392 935Z" stroke="#bbbdc0" fill="#bbbdc0" style="animation-play-state:paused" ></path>
<path d="M1232 685L1256 972L1392 935Z" stroke="#bdbfc2" fill="#bdbfc2" style="animation-play-state:paused" ></path>
<path d="M1392 935L1733 699L1446 731Z" stroke="#b7b9bc" fill="#b7b9bc" style="animation-play-state:paused" ></path>
<path d="M1673 471L1388 466L1446 731Z" stroke="#b7b9bc" fill="#b7b9bc" style="animation-play-state:paused" ></path>
<path d="M1446 731L1388 466L1232 685Z" stroke="#bbbdc0" fill="#bbbdc0" style="animation-play-state:paused" ></path>
<path d="M1388 466L1115 490L1232 685Z" stroke="#bec1c3" fill="#bec1c3" style="animation-play-state:paused" ></path>
<path d="M1232 685L869 984L1256 972Z" stroke="#c2c4c7" fill="#c2c4c7" style="animation-play-state:paused" ></path>
<path d="M1443 1246L1742 992L1392 935Z" stroke="#b6b9bc" fill="#b6b9bc" style="animation-play-state:paused" ></path>
<path d="M1392 935L1742 992L1733 699Z" stroke="#b4b7ba" fill="#b4b7ba" style="animation-play-state:paused" ></path>
<path d="M1115 490L930 648L1232 685Z" stroke="#c2c5c8" fill="#c2c5c8" style="animation-play-state:paused" ></path>
<path d="M930 648L869 984L1232 685Z" stroke="#c5c8cb" fill="#c5c8cb" style="animation-play-state:paused" ></path>
<path d="M1152 1275L1443 1246L1256 972Z" stroke="#bdbfc2" fill="#bdbfc2" style="animation-play-state:paused" ></path>
<path d="M1256 972L1443 1246L1392 935Z" stroke="#bbbdc0" fill="#bbbdc0" style="animation-play-state:paused" ></path>
<path d="M855 1203L1152 1275L1256 972Z" stroke="#c2c5c8" fill="#c2c5c8" style="animation-play-state:paused" ></path>
<path d="M1982 389L1673 471L1733 699Z" stroke="#b1b3b8" fill="#b1b3b8" style="animation-play-state:paused" ></path>
<path d="M1733 699L1673 471L1446 731Z" stroke="#b5b7bb" fill="#b5b7bb" style="animation-play-state:paused" ></path>
<path d="M1115 490L891 528L930 648Z" stroke="#c6c9cc" fill="#c6c9cc" style="animation-play-state:paused" ></path>
<path d="M1443 1246L1758 1185L1742 992Z" stroke="#b4b6ba" fill="#b4b6ba" style="animation-play-state:paused" ></path>
<path d="M869 984L855 1203L1256 972Z" stroke="#c5c8cb" fill="#c5c8cb" style="animation-play-state:paused" ></path>
<path d="M1741 145L1452 268L1388 466Z" stroke="#b6b9bc" fill="#b6b9bc" style="animation-play-state:paused" ></path>
<path d="M1388 466L1137 240L1115 490Z" stroke="#bfc2c4" fill="#bfc2c4" style="animation-play-state:paused" ></path>
<path d="M1115 490L888 147L891 528Z" stroke="#c6c9cc" fill="#c6c9cc" style="animation-play-state:paused" ></path>
<path d="M1452 268L1137 240L1388 466Z" stroke="#bcbec1" fill="#bcbec1" style="animation-play-state:paused" ></path>
<path d="M711 499L651 744L930 648Z" stroke="#ccd0d2" fill="#ccd0d2" style="animation-play-state:paused" ></path>
<path d="M930 648L651 744L869 984Z" stroke="#caced1" fill="#caced1" style="animation-play-state:paused" ></path>
<path d="M869 984L632 974L855 1203Z" stroke="#cbcfd2" fill="#cbcfd2" style="animation-play-state:paused" ></path>
<path d="M711 499L930 648L891 528Z" stroke="#cacdd0" fill="#cacdd0" style="animation-play-state:paused" ></path>
<path d="M1917 1199L1971 925L1742 992Z" stroke="#afb1b7" fill="#afb1b7" style="animation-play-state:paused" ></path>
<path d="M1742 992L1971 925L1733 699Z" stroke="#b0b3b8" fill="#b0b3b8" style="animation-play-state:paused" ></path>
<path d="M855 1203L1174 1453L1152 1275Z" stroke="#c3c6c9" fill="#c3c6c9" style="animation-play-state:paused" ></path>
<path d="M1152 1275L1486 1448L1443 1246Z" stroke="#bbbdc0" fill="#bbbdc0" style="animation-play-state:paused" ></path>
<path d="M1443 1246L1697 1498L1758 1185Z" stroke="#b4b6ba" fill="#b4b6ba" style="animation-play-state:paused" ></path>
<path d="M1971 925L1985 724L1733 699Z" stroke="#afb1b6" fill="#afb1b6" style="animation-play-state:paused" ></path>
<path d="M651 744L632 974L869 984Z" stroke="#cdd1d4" fill="#cdd1d4" style="animation-play-state:paused" ></path>
<path d="M855 1203L907 1527L1174 1453Z" stroke="#c6c9cc" fill="#c6c9cc" style="animation-play-state:paused" ></path>
<path d="M1174 1453L1486 1448L1152 1275Z" stroke="#bdc0c3" fill="#bdc0c3" style="animation-play-state:paused" ></path>
<path d="M1758 1185L1917 1199L1742 992Z" stroke="#b1b3b8" fill="#b1b3b8" style="animation-play-state:paused" ></path>
<path d="M1985 724L1982 389L1733 699Z" stroke="#afb1b6" fill="#afb1b6" style="animation-play-state:paused" ></path>
<path d="M1673 471L1741 145L1388 466Z" stroke="#b5b7bb" fill="#b5b7bb" style="animation-play-state:paused" ></path>
<path d="M1982 389L1741 145L1673 471Z" stroke="#b1b3b8" fill="#b1b3b8" style="animation-play-state:paused" ></path>
<path d="M1452 268L1190 -47L1137 240Z" stroke="#bec0c3" fill="#bec0c3" style="animation-play-state:paused" ></path>
<path d="M888 147L711 499L891 528Z" stroke="#caced0" fill="#caced0" style="animation-play-state:paused" ></path>
<path d="M651 744L435 768L632 974Z" stroke="#d1d6d8" fill="#d1d6d8" style="animation-play-state:paused" ></path>
<path d="M1137 240L888 147L1115 490Z" stroke="#c4c7ca" fill="#c4c7ca" style="animation-play-state:paused" ></path>
<path d="M1891 1480L1917 1199L1758 1185Z" stroke="#b0b2b7" fill="#b0b2b7" style="animation-play-state:paused" ></path>
<path d="M1971 925L2246 928L1985 724Z" stroke="#acadb4" fill="#acadb4" style="animation-play-state:paused" ></path>
<path d="M649 1486L907 1527L855 1203Z" stroke="#cbced1" fill="#cbced1" style="animation-play-state:paused" ></path>
<path d="M1174 1453L1367 1766L1486 1448Z" stroke="#bbbdc0" fill="#bbbdc0" style="animation-play-state:paused" ></path>
<path d="M1486 1448L1697 1498L1443 1246Z" stroke="#b6b8bc" fill="#b6b8bc" style="animation-play-state:paused" ></path>
<path d="M632 974L692 1226L855 1203Z" stroke="#cdd1d3" fill="#cdd1d3" style="animation-play-state:paused" ></path>
<path d="M1741 145L1446 -46L1452 268Z" stroke="#b6b8bc" fill="#b6b8bc" style="animation-play-state:paused" ></path>
<path d="M1137 240L1190 -47L888 147Z" stroke="#c3c6c9" fill="#c3c6c9" style="animation-play-state:paused" ></path>
<path d="M1982 389L1874 201L1741 145Z" stroke="#afb2b7" fill="#afb2b7" style="animation-play-state:paused" ></path>
<path d="M1741 145L1644 -71L1446 -46Z" stroke="#b5b7bb" fill="#b5b7bb" style="animation-play-state:paused" ></path>
<path d="M2152 190L1874 201L1982 389Z" stroke="#adafb5" fill="#adafb5" style="animation-play-state:paused" ></path>
<path d="M1446 -46L1190 -47L1452 268Z" stroke="#bbbdc0" fill="#bbbdc0" style="animation-play-state:paused" ></path>
<path d="M2159 1215L2246 928L1971 925Z" stroke="#abacb3" fill="#abacb3" style="animation-play-state:paused" ></path>
<path d="M1985 724L2261 458L1982 389Z" stroke="#abadb4" fill="#abadb4" style="animation-play-state:paused" ></path>
<path d="M2159 1215L1971 925L1917 1199Z" stroke="#adaeb4" fill="#adaeb4" style="animation-play-state:paused" ></path>
<path d="M1697 1498L1891 1480L1758 1185Z" stroke="#b1b3b8" fill="#b1b3b8" style="animation-play-state:paused" ></path>
<path d="M923 -103L607 216L888 147Z" stroke="#cbced1" fill="#cbced1" style="animation-play-state:paused" ></path>
<path d="M888 147L607 216L711 499Z" stroke="#cdd1d3" fill="#cdd1d3" style="animation-play-state:paused" ></path>
<path d="M711 499L435 768L651 744Z" stroke="#d1d5d7" fill="#d1d5d7" style="animation-play-state:paused" ></path>
<path d="M632 974L464 1031L692 1226Z" stroke="#d1d5d7" fill="#d1d5d7" style="animation-play-state:paused" ></path>
<path d="M2246 928L2248 715L1985 724Z" stroke="#aaabb2" fill="#aaabb2" style="animation-play-state:paused" ></path>
<path d="M1241 1695L1367 1766L1174 1453Z" stroke="#bec0c3" fill="#bec0c3" style="animation-play-state:paused" ></path>
<path d="M1486 1448L1661 1707L1697 1498Z" stroke="#b5b7bb" fill="#b5b7bb" style="animation-play-state:paused" ></path>
<path d="M1697 1498L1661 1707L1891 1480Z" stroke="#b2b4b9" fill="#b2b4b9" style="animation-play-state:paused" ></path>
<path d="M350 465L435 768L711 499Z" stroke="#d4d8da" fill="#d4d8da" style="animation-play-state:paused" ></path>
<path d="M435 768L464 1031L632 974Z" stroke="#d3d8da" fill="#d3d8da" style="animation-play-state:paused" ></path>
<path d="M692 1226L649 1486L855 1203Z" stroke="#cdd1d3" fill="#cdd1d3" style="animation-play-state:paused" ></path>
<path d="M977 1768L1241 1695L1174 1453Z" stroke="#c1c4c7" fill="#c1c4c7" style="animation-play-state:paused" ></path>
<path d="M416 1287L649 1486L692 1226Z" stroke="#d1d5d8" fill="#d1d5d8" style="animation-play-state:paused" ></path>
<path d="M977 1768L1174 1453L907 1527Z" stroke="#c4c8ca" fill="#c4c8ca" style="animation-play-state:paused" ></path>
<path d="M1874 201L1644 -71L1741 145Z" stroke="#b2b4b8" fill="#b2b4b8" style="animation-play-state:paused" ></path>
<path d="M1251 -340L923 -103L1190 -47Z" stroke="#c2c4c7" fill="#c2c4c7" style="animation-play-state:paused" ></path>
<path d="M1241 1695L1661 1707L1367 1766Z" stroke="#b9bbbe" fill="#b9bbbe" style="animation-play-state:paused" ></path>
<path d="M1367 1766L1661 1707L1486 1448Z" stroke="#b7b9bc" fill="#b7b9bc" style="animation-play-state:paused" ></path>
<path d="M2248 715L2261 458L1985 724Z" stroke="#aaabb2" fill="#aaabb2" style="animation-play-state:paused" ></path>
<path d="M1874 201L2021 -93L1644 -71Z" stroke="#b0b2b7" fill="#b0b2b7" style="animation-play-state:paused" ></path>
<path d="M2242 1455L1917 1199L1891 1480Z" stroke="#adaeb4" fill="#adaeb4" style="animation-play-state:paused" ></path>
<path d="M2242 1455L2159 1215L1917 1199Z" stroke="#abadb3" fill="#abadb3" style="animation-play-state:paused" ></path>
<path d="M2507 1031L2510 734L2248 715Z" stroke="#a5a6ae" fill="#a5a6ae" style="animation-play-state:paused" ></path>
<path d="M2248 715L2510 734L2261 458Z" stroke="#a7a8af" fill="#a7a8af" style="animation-play-state:paused" ></path>
<path d="M607 216L350 465L711 499Z" stroke="#d2d6d9" fill="#d2d6d9" style="animation-play-state:paused" ></path>
<path d="M464 1031L416 1287L692 1226Z" stroke="#d3d7da" fill="#d3d7da" style="animation-play-state:paused" ></path>
<path d="M1251 -340L1190 -47L1446 -46Z" stroke="#bdbfc2" fill="#bdbfc2" style="animation-play-state:paused" ></path>
<path d="M1190 -47L923 -103L888 147Z" stroke="#c5c8cb" fill="#c5c8cb" style="animation-play-state:paused" ></path>
<path d="M607 216L373 180L350 465Z" stroke="#d5dadc" fill="#d5dadc" style="animation-play-state:paused" ></path>
<path d="M647 1737L977 1768L907 1527Z" stroke="#cacdd0" fill="#cacdd0" style="animation-play-state:paused" ></path>
<path d="M647 1737L907 1527L649 1486Z" stroke="#cdd1d3" fill="#cdd1d3" style="animation-play-state:paused" ></path>
<path d="M2152 190L2021 -93L1874 201Z" stroke="#adaeb4" fill="#adaeb4" style="animation-play-state:paused" ></path>
<path d="M1410 -349L1251 -340L1446 -46Z" stroke="#babdc0" fill="#babdc0" style="animation-play-state:paused" ></path>
<path d="M2261 458L2152 190L1982 389Z" stroke="#aaacb3" fill="#aaacb3" style="animation-play-state:paused" ></path>
<path d="M486 -56L373 180L607 216Z" stroke="#d4d9db" fill="#d4d9db" style="animation-play-state:paused" ></path>
<path d="M350 465L175 697L435 768Z" stroke="#dddddd" fill="#dddddd" style="animation-play-state:paused" ></path>
<path d="M923 -103L610 -24L607 216Z" stroke="#cdd1d4" fill="#cdd1d4" style="animation-play-state:paused" ></path>
<path d="M2017 1800L2242 1455L1891 1480Z" stroke="#acaeb4" fill="#acaeb4" style="animation-play-state:paused" ></path>
<path d="M2507 1031L2248 715L2246 928Z" stroke="#a7a8b0" fill="#a7a8b0" style="animation-play-state:paused" ></path>
<path d="M109 1271L372 1489L416 1287Z" stroke="#dddddd" fill="#dddddd" style="animation-play-state:paused" ></path>
<path d="M416 1287L372 1489L649 1486Z" stroke="#d4d9db" fill="#d4d9db" style="animation-play-state:paused" ></path>
<path d="M109 1271L416 1287L464 1031Z" stroke="#dcdcdc" fill="#dcdcdc" style="animation-play-state:paused" ></path>
<path d="M387 1717L647 1737L649 1486Z" stroke="#d2d6d9" fill="#d2d6d9" style="animation-play-state:paused" ></path>
<path d="M1410 -349L1446 -46L1695 -369Z" stroke="#b7b9bc" fill="#b7b9bc" style="animation-play-state:paused" ></path>
<path d="M923 -103L731 -261L610 -24Z" stroke="#ccd0d3" fill="#ccd0d3" style="animation-play-state:paused" ></path>
<path d="M1241 1695L2017 1800L1661 1707Z" stroke="#b4b6ba" fill="#b4b6ba" style="animation-play-state:paused" ></path>
<path d="M1661 1707L2017 1800L1891 1480Z" stroke="#b0b2b7" fill="#b0b2b7" style="animation-play-state:paused" ></path>
<path d="M977 1768L2017 1800L1241 1695Z" stroke="#b9bbbe" fill="#b9bbbe" style="animation-play-state:paused" ></path>
<path d="M647 1737L2017 1800L977 1768Z" stroke="#bfc2c4" fill="#bfc2c4" style="animation-play-state:paused" ></path>
<path d="M2507 1031L2246 928L2159 1215Z" stroke="#a7a8b0" fill="#a7a8b0" style="animation-play-state:paused" ></path>
<path d="M2261 458L2492 229L2152 190Z" stroke="#a7a8b0" fill="#a7a8b0" style="animation-play-state:paused" ></path>
<path d="M76 395L175 697L350 465Z" stroke="#dfdfdf" fill="#dfdfdf" style="animation-play-state:paused" ></path>
<path d="M435 768L175 697L464 1031Z" stroke="#d8dddf" fill="#d8dddf" style="animation-play-state:paused" ></path>
<path d="M2415 1293L2507 1031L2159 1215Z" stroke="#a6a7af" fill="#a6a7af" style="animation-play-state:paused" ></path>
<path d="M1695 -369L1446 -46L1644 -71Z" stroke="#b5b7bb" fill="#b5b7bb" style="animation-play-state:paused" ></path>
<path d="M175 697L180 919L464 1031Z" stroke="#dedede" fill="#dedede" style="animation-play-state:paused" ></path>
<path d="M1943 -335L1695 -369L1644 -71Z" stroke="#b2b4b8" fill="#b2b4b8" style="animation-play-state:paused" ></path>
<path d="M2706 723L2521 494L2510 734Z" stroke="#a2a2ab" fill="#a2a2ab" style="animation-play-state:paused" ></path>
<path d="M2510 734L2521 494L2261 458Z" stroke="#a5a6ae" fill="#a5a6ae" style="animation-play-state:paused" ></path>
<path d="M2152 190L2183 -76L2021 -93Z" stroke="#abacb3" fill="#abacb3" style="animation-play-state:paused" ></path>
<path d="M2021 -93L1943 -335L1644 -71Z" stroke="#afb1b7" fill="#afb1b7" style="animation-play-state:paused" ></path>
<path d="M1410 -349L960 -360L1251 -340Z" stroke="#bfc2c5" fill="#bfc2c5" style="animation-play-state:paused" ></path>
<path d="M1251 -340L960 -360L923 -103Z" stroke="#c4c7ca" fill="#c4c7ca" style="animation-play-state:paused" ></path>
<path d="M610 -24L486 -56L607 216Z" stroke="#d2d6d8" fill="#d2d6d8" style="animation-play-state:paused" ></path>
<path d="M180 919L109 1271L464 1031Z" stroke="#dedede" fill="#dedede" style="animation-play-state:paused" ></path>
<path d="M372 1489L387 1717L649 1486Z" stroke="#d4d9db" fill="#d4d9db" style="animation-play-state:paused" ></path>
<path d="M2382 1481L2159 1215L2242 1455Z" stroke="#a8a9b1" fill="#a8a9b1" style="animation-play-state:paused" ></path>
<path d="M2382 1481L2415 1293L2159 1215Z" stroke="#a7a8b0" fill="#a7a8b0" style="animation-play-state:paused" ></path>
<path d="M2507 1031L2706 723L2510 734Z" stroke="#a2a2ab" fill="#a2a2ab" style="animation-play-state:paused" ></path>
<path d="M731 -261L486 -56L610 -24Z" stroke="#d0d5d7" fill="#d0d5d7" style="animation-play-state:paused" ></path>
<path d="M145 225L76 395L350 465Z" stroke="#dfdfdf" fill="#dfdfdf" style="animation-play-state:paused" ></path>
<path d="M145 225L350 465L373 180Z" stroke="#dddddd" fill="#dddddd" style="animation-play-state:paused" ></path>
<path d="M175 697L-140 1036L180 919Z" stroke="#e2e2e2" fill="#e2e2e2" style="animation-play-state:paused" ></path>
<path d="M180 919L-140 1036L109 1271Z" stroke="#e2e2e2" fill="#e2e2e2" style="animation-play-state:paused" ></path>
<path d="M2492 229L2183 -76L2152 190Z" stroke="#a8a9b0" fill="#a8a9b0" style="animation-play-state:paused" ></path>
<path d="M2017 1800L2153 1764L2242 1455Z" stroke="#aaacb3" fill="#aaacb3" style="animation-play-state:paused" ></path>
<path d="M960 -360L731 -261L923 -103Z" stroke="#c9cccf" fill="#c9cccf" style="animation-play-state:paused" ></path>
<path d="M97 1668L387 1717L372 1489Z" stroke="#dddddd" fill="#dddddd" style="animation-play-state:paused" ></path>
<path d="M2153 1764L2382 1481L2242 1455Z" stroke="#a8a9b1" fill="#a8a9b1" style="animation-play-state:paused" ></path>
<path d="M230 -91L373 180L486 -56Z" stroke="#d8dddf" fill="#d8dddf" style="animation-play-state:paused" ></path>
<path d="M230 -91L145 225L373 180Z" stroke="#dedede" fill="#dedede" style="animation-play-state:paused" ></path>
<path d="M2521 494L2492 229L2261 458Z" stroke="#a5a6ae" fill="#a5a6ae" style="animation-play-state:paused" ></path>
<path d="M2245 -332L2021 -93L2183 -76Z" stroke="#aaacb2" fill="#aaacb2" style="animation-play-state:paused" ></path>
<path d="M2245 -332L1943 -335L2021 -93Z" stroke="#acadb4" fill="#acadb4" style="animation-play-state:paused" ></path>
<path d="M1695 -369L1943 -335L1410 -349Z" stroke="#b3b5ba" fill="#b3b5ba" style="animation-play-state:paused" ></path>
<path d="M109 1271L159 1538L372 1489Z" stroke="#dfdfdf" fill="#dfdfdf" style="animation-play-state:paused" ></path>
<path d="M-71 1488L159 1538L109 1271Z" stroke="#e2e2e2" fill="#e2e2e2" style="animation-play-state:paused" ></path>
<path d="M2752 1024L2507 1031L2415 1293Z" stroke="#a3a3ac" fill="#a3a3ac" style="animation-play-state:paused" ></path>
<path d="M2752 1024L2706 723L2507 1031Z" stroke="#9e9fa8" fill="#9e9fa8" style="animation-play-state:paused" ></path>
<path d="M2521 494L2677 252L2492 229Z" stroke="#a3a3ac" fill="#a3a3ac" style="animation-play-state:paused" ></path>
<path d="M2787 1204L2752 1024L2415 1293Z" stroke="#9f9fa8" fill="#9f9fa8" style="animation-play-state:paused" ></path>
<path d="M-153 663L175 697L-66 504Z" stroke="#e4e4e4" fill="#e4e4e4" style="animation-play-state:paused" ></path>
<path d="M-153 663L-140 1036L175 697Z" stroke="#e4e4e4" fill="#e4e4e4" style="animation-play-state:paused" ></path>
<path d="M-66 504L175 697L76 395Z" stroke="#e2e2e2" fill="#e2e2e2" style="animation-play-state:paused" ></path>
<path d="M2406 -64L2245 -332L2183 -76Z" stroke="#a8a9b0" fill="#a8a9b0" style="animation-play-state:paused" ></path>
<path d="M2406 -64L2183 -76L2492 229Z" stroke="#a6a7af" fill="#a6a7af" style="animation-play-state:paused" ></path>
<path d="M445 -312L230 -91L486 -56Z" stroke="#d7dcde" fill="#d7dcde" style="animation-play-state:paused" ></path>
<path d="M-153 259L-66 504L76 395Z" stroke="#e4e4e4" fill="#e4e4e4" style="animation-play-state:paused" ></path>
<path d="M2677 252L2406 -64L2492 229Z" stroke="#a4a4ad" fill="#a4a4ad" style="animation-play-state:paused" ></path>
<path d="M-153 259L76 395L145 225Z" stroke="#e3e3e3" fill="#e3e3e3" style="animation-play-state:paused" ></path>
<path d="M2706 723L2737 462L2521 494Z" stroke="#9e9fa8" fill="#9e9fa8" style="animation-play-state:paused" ></path>
<path d="M2973 706L2737 462L2706 723Z" stroke="#979aa2" fill="#979aa2" style="animation-play-state:paused" ></path>
<path d="M731 -261L445 -312L486 -56Z" stroke="#d2d6d9" fill="#d2d6d9" style="animation-play-state:paused" ></path>
<path d="M960 -360L445 -312L731 -261Z" stroke="#cdd1d4" fill="#cdd1d4" style="animation-play-state:paused" ></path>
<path d="M2686 1434L2415 1293L2382 1481Z" stroke="#a4a4ad" fill="#a4a4ad" style="animation-play-state:paused" ></path>
<path d="M2686 1434L2787 1204L2415 1293Z" stroke="#a0a0a9" fill="#a0a0a9" style="animation-play-state:paused" ></path>
<path d="M2752 1024L2973 706L2706 723Z" stroke="#979aa2" fill="#979aa2" style="animation-play-state:paused" ></path>
<path d="M2153 1764L2512 1789L2382 1481Z" stroke="#a7a7af" fill="#a7a7af" style="animation-play-state:paused" ></path>
<path d="M2017 1800L2512 1789L2153 1764Z" stroke="#a9aab1" fill="#a9aab1" style="animation-play-state:paused" ></path>
<path d="M-71 1488L97 1668L159 1538Z" stroke="#e2e2e2" fill="#e2e2e2" style="animation-play-state:paused" ></path>
<path d="M159 1538L97 1668L372 1489Z" stroke="#dfdfdf" fill="#dfdfdf" style="animation-play-state:paused" ></path>
<path d="M-402 908L-107 1216L-140 1036Z" stroke="#e8e8e8" fill="#e8e8e8" style="animation-play-state:paused" ></path>
<path d="M-140 1036L-107 1216L109 1271Z" stroke="#e4e4e4" fill="#e4e4e4" style="animation-play-state:paused" ></path>
<path d="M2737 462L2677 252L2521 494Z" stroke="#9fa0a9" fill="#9fa0a9" style="animation-play-state:paused" ></path>
<path d="M2512 1789L2686 1434L2382 1481Z" stroke="#a4a4ad" fill="#a4a4ad" style="animation-play-state:paused" ></path>
<path d="M-354 714L-402 908L-153 663Z" stroke="#eaeaea" fill="#eaeaea" style="animation-play-state:paused" ></path>
<path d="M-153 663L-402 908L-140 1036Z" stroke="#e8e8e8" fill="#e8e8e8" style="animation-play-state:paused" ></path>
<path d="M230 -91L-153 259L145 225Z" stroke="#e2e2e2" fill="#e2e2e2" style="animation-play-state:paused" ></path>
<path d="M-81 -17L-153 259L230 -91Z" stroke="#e3e3e3" fill="#e3e3e3" style="animation-play-state:paused" ></path>
<path d="M-107 1216L-71 1488L109 1271Z" stroke="#e4e4e4" fill="#e4e4e4" style="animation-play-state:paused" ></path>
<path d="M445 -312L128 -288L230 -91Z" stroke="#dedede" fill="#dedede" style="animation-play-state:paused" ></path>
<path d="M2406 -64L2399 -270L2245 -332Z" stroke="#a7a7af" fill="#a7a7af" style="animation-play-state:paused" ></path>
<path d="M2245 -332L2399 -270L1943 -335Z" stroke="#a9abb2" fill="#a9abb2" style="animation-play-state:paused" ></path>
<path d="M1943 -335L2399 -270L1410 -349Z" stroke="#aeb0b6" fill="#aeb0b6" style="animation-play-state:paused" ></path>
<path d="M1410 -349L2399 -270L960 -360Z" stroke="#b5b7bb" fill="#b5b7bb" style="animation-play-state:paused" ></path>
<path d="M2755 -255L2399 -270L2406 -64Z" stroke="#a4a4ad" fill="#a4a4ad" style="animation-play-state:paused" ></path>
<path d="M2966 914L2752 1024L2787 1204Z" stroke="#9699a1" fill="#9699a1" style="animation-play-state:paused" ></path>
<path d="M2966 914L2973 706L2752 1024Z" stroke="#93969e" fill="#93969e" style="animation-play-state:paused" ></path>
<path d="M2737 462L2972 416L2677 252Z" stroke="#989aa2" fill="#989aa2" style="animation-play-state:paused" ></path>
<path d="M3015 1216L2966 914L2787 1204Z" stroke="#92959d" fill="#92959d" style="animation-play-state:paused" ></path>
<path d="M2942 276L2714 -76L2677 252Z" stroke="#999ba3" fill="#999ba3" style="animation-play-state:paused" ></path>
<path d="M2677 252L2714 -76L2406 -64Z" stroke="#a1a1aa" fill="#a1a1aa" style="animation-play-state:paused" ></path>
<path d="M128 -288L-81 -17L230 -91Z" stroke="#e1e1e1" fill="#e1e1e1" style="animation-play-state:paused" ></path>
<path d="M-354 714L-153 663L-411 424Z" stroke="#eaeaea" fill="#eaeaea" style="animation-play-state:paused" ></path>
<path d="M2512 1789L2710 1720L2686 1434Z" stroke="#9fa0a9" fill="#9fa0a9" style="animation-play-state:paused" ></path>
<path d="M3008 1505L3015 1216L2787 1204Z" stroke="#91959d" fill="#91959d" style="animation-play-state:paused" ></path>
<path d="M2017 1800L2710 1720L2512 1789Z" stroke="#a5a6ae" fill="#a5a6ae" style="animation-play-state:paused" ></path>
<path d="M2973 706L2972 416L2737 462Z" stroke="#93969e" fill="#93969e" style="animation-play-state:paused" ></path>
<path d="M2942 276L2972 416L3232 251Z" stroke="#8c9198" fill="#8c9198" style="animation-play-state:paused" ></path>
<path d="M-381 1662L-125 1790L-71 1488Z" stroke="#e7e7e7" fill="#e7e7e7" style="animation-play-state:paused" ></path>
<path d="M-71 1488L-125 1790L97 1668Z" stroke="#e4e4e4" fill="#e4e4e4" style="animation-play-state:paused" ></path>
<path d="M97 1668L-125 1790L387 1717Z" stroke="#e1e1e1" fill="#e1e1e1" style="animation-play-state:paused" ></path>
<path d="M387 1717L-626 1778L647 1737Z" stroke="#e0e0e0" fill="#e0e0e0" style="animation-play-state:paused" ></path>
<path d="M-153 663L-66 504L-411 424Z" stroke="#e8e8e8" fill="#e8e8e8" style="animation-play-state:paused" ></path>
<path d="M-107 1216L-377 1431L-71 1488Z" stroke="#e7e7e7" fill="#e7e7e7" style="animation-play-state:paused" ></path>
<path d="M-411 424L-66 504L-153 259Z" stroke="#e8e8e8" fill="#e8e8e8" style="animation-play-state:paused" ></path>
<path d="M-419 219L-411 424L-153 259Z" stroke="#eaeaea" fill="#eaeaea" style="animation-play-state:paused" ></path>
<path d="M3008 1505L2787 1204L2686 1434Z" stroke="#9699a1" fill="#9699a1" style="animation-play-state:paused" ></path>
<path d="M2966 914L3239 664L2973 706Z" stroke="#8c9098" fill="#8c9098" style="animation-play-state:paused" ></path>
<path d="M-402 908L-324 1175L-107 1216Z" stroke="#e9e9e9" fill="#e9e9e9" style="animation-play-state:paused" ></path>
<path d="M2710 1720L3008 1505L2686 1434Z" stroke="#979aa2" fill="#979aa2" style="animation-play-state:paused" ></path>
<path d="M3204 504L2972 416L2973 706Z" stroke="#8c9198" fill="#8c9198" style="animation-play-state:paused" ></path>
<path d="M2972 416L2942 276L2677 252Z" stroke="#9598a0" fill="#9598a0" style="animation-play-state:paused" ></path>
<path d="M-81 -17L-419 219L-153 259Z" stroke="#e8e8e8" fill="#e8e8e8" style="animation-play-state:paused" ></path>
<path d="M-411 424L-587 531L-354 714Z" stroke="#ededed" fill="#ededed" style="animation-play-state:paused" ></path>
<path d="M-426 -10L-419 219L-81 -17Z" stroke="#eaeaea" fill="#eaeaea" style="animation-play-state:paused" ></path>
<path d="M2945 -55L2755 -255L2714 -76Z" stroke="#979aa2" fill="#979aa2" style="animation-play-state:paused" ></path>
<path d="M2714 -76L2755 -255L2406 -64Z" stroke="#a0a0a9" fill="#a0a0a9" style="animation-play-state:paused" ></path>
<path d="M-576 1257L-324 1175L-402 908Z" stroke="#ececec" fill="#ececec" style="animation-play-state:paused" ></path>
<path d="M-576 1257L-377 1431L-324 1175Z" stroke="#ececec" fill="#ececec" style="animation-play-state:paused" ></path>
<path d="M-324 1175L-377 1431L-107 1216Z" stroke="#e9e9e9" fill="#e9e9e9" style="animation-play-state:paused" ></path>
<path d="M445 -312L-109 -328L128 -288Z" stroke="#e0e0e0" fill="#e0e0e0" style="animation-play-state:paused" ></path>
<path d="M128 -288L-109 -328L-81 -17Z" stroke="#e4e4e4" fill="#e4e4e4" style="animation-play-state:paused" ></path>
<path d="M960 -360L-109 -328L445 -312Z" stroke="#d6dadc" fill="#d6dadc" style="animation-play-state:paused" ></path>
<path d="M2942 276L2945 -55L2714 -76Z" stroke="#94979f" fill="#94979f" style="animation-play-state:paused" ></path>
<path d="M3264 1162L3176 960L3015 1216Z" stroke="#888d94" fill="#888d94" style="animation-play-state:paused" ></path>
<path d="M2710 1720L2941 1713L3008 1505Z" stroke="#94979f" fill="#94979f" style="animation-play-state:paused" ></path>
<path d="M2017 1800L2941 1713L2710 1720Z" stroke="#a3a3ac" fill="#a3a3ac" style="animation-play-state:paused" ></path>
<path d="M3264 1162L3015 1216L3220 1477Z" stroke="#878c93" fill="#878c93" style="animation-play-state:paused" ></path>
<path d="M3015 1216L3176 960L2966 914Z" stroke="#8c9198" fill="#8c9198" style="animation-play-state:paused" ></path>
<path d="M2942 276L3189 -53L2945 -55Z" stroke="#8d9299" fill="#8d9299" style="animation-play-state:paused" ></path>
<path d="M-377 1431L-381 1662L-71 1488Z" stroke="#e9e9e9" fill="#e9e9e9" style="animation-play-state:paused" ></path>
<path d="M-109 -328L-426 -10L-81 -17Z" stroke="#e8e8e8" fill="#e8e8e8" style="animation-play-state:paused" ></path>
<path d="M-419 219L-587 531L-411 424Z" stroke="#ededed" fill="#ededed" style="animation-play-state:paused" ></path>
<path d="M3176 960L3239 664L2966 914Z" stroke="#898e95" fill="#898e95" style="animation-play-state:paused" ></path>
<path d="M3220 1477L3015 1216L3008 1505Z" stroke="#8b8f97" fill="#8b8f97" style="animation-play-state:paused" ></path>
<path d="M3176 960L3517 1010L3239 664Z" stroke="#81878d" fill="#81878d" style="animation-play-state:paused" ></path>
<path d="M-638 241L-587 531L-419 219Z" stroke="#efefef" fill="#efefef" style="animation-play-state:paused" ></path>
<path d="M-354 714L-580 755L-402 908Z" stroke="#ededed" fill="#ededed" style="animation-play-state:paused" ></path>
<path d="M-377 1431L-610 1490L-381 1662Z" stroke="#ededed" fill="#ededed" style="animation-play-state:paused" ></path>
<path d="M-587 531L-580 755L-354 714Z" stroke="#eeeeee" fill="#eeeeee" style="animation-play-state:paused" ></path>
<path d="M-580 755L-584 905L-402 908Z" stroke="#eeeeee" fill="#eeeeee" style="animation-play-state:paused" ></path>
<path d="M3462 741L3204 504L3239 664Z" stroke="#81878d" fill="#81878d" style="animation-play-state:paused" ></path>
<path d="M3239 664L3204 504L2973 706Z" stroke="#888d94" fill="#888d94" style="animation-play-state:paused" ></path>
<path d="M-584 905L-576 1257L-402 908Z" stroke="#eeeeee" fill="#eeeeee" style="animation-play-state:paused" ></path>
<path d="M3272 -333L2913 -322L2945 -55Z" stroke="#8c9198" fill="#8c9198" style="animation-play-state:paused" ></path>
<path d="M2945 -55L2913 -322L2755 -255Z" stroke="#94979f" fill="#94979f" style="animation-play-state:paused" ></path>
<path d="M2755 -255L2913 -322L2399 -270Z" stroke="#9d9ea7" fill="#9d9ea7" style="animation-play-state:paused" ></path>
<path d="M3247 1724L3220 1477L3008 1505Z" stroke="#878d93" fill="#878d93" style="animation-play-state:paused" ></path>
<path d="M3264 1162L3517 1010L3176 960Z" stroke="#80878d" fill="#80878d" style="animation-play-state:paused" ></path>
<path d="M3204 504L3232 251L2972 416Z" stroke="#888d94" fill="#888d94" style="animation-play-state:paused" ></path>
<path d="M-109 -328L-409 -281L-426 -10Z" stroke="#eaeaea" fill="#eaeaea" style="animation-play-state:paused" ></path>
<path d="M-570 -76L-638 241L-419 219Z" stroke="#efefef" fill="#efefef" style="animation-play-state:paused" ></path>
<path d="M-626 1778L-610 1490L-576 1257Z" stroke="#f0f0f0" fill="#f0f0f0" style="animation-play-state:paused" ></path>
<path d="M-576 1257L-610 1490L-377 1431Z" stroke="#eeeeee" fill="#eeeeee" style="animation-play-state:paused" ></path>
<path d="M-587 531L-638 241L-580 755Z" stroke="#f0f0f0" fill="#f0f0f0" style="animation-play-state:paused" ></path>
<path d="M-580 755L-638 241L-584 905Z" stroke="#f0f0f0" fill="#f0f0f0" style="animation-play-state:paused" ></path>
<path d="M-570 -76L-419 219L-426 -10Z" stroke="#ededed" fill="#ededed" style="animation-play-state:paused" ></path>
<path d="M2941 1713L3247 1724L3008 1505Z" stroke="#8b9097" fill="#8b9097" style="animation-play-state:paused" ></path>
<path d="M3427 1189L3517 1010L3264 1162Z" stroke="#7d8489" fill="#7d8489" style="animation-play-state:paused" ></path>
<path d="M3232 251L3189 -53L2942 276Z" stroke="#898e95" fill="#898e95" style="animation-play-state:paused" ></path>
<path d="M-596 -268L-570 -76L-426 -10Z" stroke="#eeeeee" fill="#eeeeee" style="animation-play-state:paused" ></path>
<path d="M-638 241L-570 -76L-584 905Z" stroke="#f0f0f0" fill="#f0f0f0" style="animation-play-state:paused" ></path>
<path d="M-610 1490L-626 1778L-381 1662Z" stroke="#eeeeee" fill="#eeeeee" style="animation-play-state:paused" ></path>
<path d="M-381 1662L-626 1778L-125 1790Z" stroke="#ebebeb" fill="#ebebeb" style="animation-play-state:paused" ></path>
<path d="M-125 1790L-626 1778L387 1717Z" stroke="#e6e6e6" fill="#e6e6e6" style="animation-play-state:paused" ></path>
<path d="M-584 905L-626 1778L-576 1257Z" stroke="#f0f0f0" fill="#f0f0f0" style="animation-play-state:paused" ></path>
<path d="M3427 1189L3264 1162L3220 1477Z" stroke="#81878d" fill="#81878d" style="animation-play-state:paused" ></path>
<path d="M3204 504L3525 193L3232 251Z" stroke="#80878d" fill="#80878d" style="animation-play-state:paused" ></path>
<path d="M3232 251L3487 -24L3189 -53Z" stroke="#81878d" fill="#81878d" style="animation-play-state:paused" ></path>
<path d="M3517 1010L3462 741L3239 664Z" stroke="#7d8389" fill="#7d8389" style="animation-play-state:paused" ></path>
<path d="M3441 1530L3427 1189L3220 1477Z" stroke="#7e858b" fill="#7e858b" style="animation-play-state:paused" ></path>
<path d="M3517 1010L3427 1189L3462 741Z" stroke="#7a8186" fill="#7a8186" style="animation-play-state:paused" ></path>
<path d="M3427 1189L3456 482L3462 741Z" stroke="#7b8287" fill="#7b8287" style="animation-play-state:paused" ></path>
<path d="M3462 741L3456 482L3204 504Z" stroke="#7e858a" fill="#7e858a" style="animation-play-state:paused" ></path>
<path d="M3524 -269L3272 -333L3189 -53Z" stroke="#80868c" fill="#80868c" style="animation-play-state:paused" ></path>
<path d="M3189 -53L3272 -333L2945 -55Z" stroke="#888d94" fill="#888d94" style="animation-play-state:paused" ></path>
<path d="M-109 -328L-596 -268L-409 -281Z" stroke="#ebebeb" fill="#ebebeb" style="animation-play-state:paused" ></path>
<path d="M-409 -281L-596 -268L-426 -10Z" stroke="#ededed" fill="#ededed" style="animation-play-state:paused" ></path>
<path d="M3456 482L3525 193L3204 504Z" stroke="#7d8489" fill="#7d8489" style="animation-play-state:paused" ></path>
<path d="M3247 1724L3441 1530L3220 1477Z" stroke="#81878d" fill="#81878d" style="animation-play-state:paused" ></path>
<path d="M3427 1189L3441 1530L3456 482Z" stroke="#7b8287" fill="#7b8287" style="animation-play-state:paused" ></path>
<path d="M3525 193L3487 -24L3232 251Z" stroke="#7c8389" fill="#7c8389" style="animation-play-state:paused" ></path>
<path d="M2941 1713L3419 1800L3247 1724Z" stroke="#858b92" fill="#858b92" style="animation-play-state:paused" ></path>
<path d="M3247 1724L3419 1800L3441 1530Z" stroke="#7e858a" fill="#7e858a" style="animation-play-state:paused" ></path>
<path d="M3456 482L3524 -269L3525 193Z" stroke="#798085" fill="#798085" style="animation-play-state:paused" ></path>
<path d="M3525 193L3524 -269L3487 -24Z" stroke="#788084" fill="#788084" style="animation-play-state:paused" ></path>
<path d="M3487 -24L3524 -269L3189 -53Z" stroke="#7d8489" fill="#7d8489" style="animation-play-state:paused" ></path></g>
<style type="text/css" style="animation-play-state:paused" >#bk-0.49795696850175486 path { stroke-width: 1 }</style></g></svg>