<?xml version="1.0" encoding="utf-8"?><svg xmlns="http://www.w3.org/2000/svg" xmlns:xlink="http://www.w3.org/1999/xlink" width="3000" height="1326" preserveAspectRatio="xMidYMid" viewBox="0 0 3000 1326" style="z-index:1;margin-right:-2px;display:block;background-repeat-y:initial;background-repeat-x:initial;background-color:rgb(241, 242, 243);animation-play-state:paused" ><g transform="translate(1500,663) scale(1,1) translate(-1500,-663)" style="animation-play-state:paused" ><g id="bk-0.5874585094086672" style="animation-play-state:paused" ><path d="M1368 650L1689 785L1506 429Z" stroke="#884611" fill="#884611" style="animation-play-state:paused" ></path>
<path d="M1689 785L1670 493L1506 429Z" stroke="#8b4912" fill="#8b4912" style="animation-play-state:paused" ></path>
<path d="M1689 785L1908 742L1670 493Z" stroke="#8e4c12" fill="#8e4c12" style="animation-play-state:paused" ></path>
<path d="M1368 650L1388 982L1689 785Z" stroke="#874511" fill="#874511" style="animation-play-state:paused" ></path>
<path d="M1689 785L1869 903L1908 742Z" stroke="#904e13" fill="#904e13" style="animation-play-state:paused" ></path>
<path d="M1388 982L1746 950L1689 785Z" stroke="#8a4812" fill="#8a4812" style="animation-play-state:paused" ></path>
<path d="M1908 742L1989 481L1670 493Z" stroke="#914f13" fill="#914f13" style="animation-play-state:paused" ></path>
<path d="M1651 237L1441 168L1670 493Z" stroke="#8a4812" fill="#8a4812" style="animation-play-state:paused" ></path>
<path d="M1670 493L1441 168L1506 429Z" stroke="#894711" fill="#894711" style="animation-play-state:paused" ></path>
<path d="M1506 429L1195 688L1368 650Z" stroke="#824110" fill="#824110" style="animation-play-state:paused" ></path>
<path d="M1368 650L1195 688L1388 982Z" stroke="#804010" fill="#804010" style="animation-play-state:paused" ></path>
<path d="M1151 423L1195 688L1506 429Z" stroke="#7e3f10" fill="#7e3f10" style="animation-play-state:paused" ></path>
<path d="M1173 234L1151 423L1506 429Z" stroke="#7e3f10" fill="#7e3f10" style="animation-play-state:paused" ></path>
<path d="M1972 260L1651 237L1670 493Z" stroke="#8f4d12" fill="#8f4d12" style="animation-play-state:paused" ></path>
<path d="M1746 950L1869 903L1689 785Z" stroke="#8f4d13" fill="#8f4d13" style="animation-play-state:paused" ></path>
<path d="M1908 742L2154 729L1989 481Z" stroke="#955414" fill="#955414" style="animation-play-state:paused" ></path>
<path d="M1406 -100L1173 234L1441 168Z" stroke="#814110" fill="#814110" style="animation-play-state:paused" ></path>
<path d="M1441 168L1173 234L1506 429Z" stroke="#834210" fill="#834210" style="animation-play-state:paused" ></path>
<path d="M1195 688L1221 965L1388 982Z" stroke="#7e3f10" fill="#7e3f10" style="animation-play-state:paused" ></path>
<path d="M1388 982L1663 1256L1746 950Z" stroke="#8a4812" fill="#8a4812" style="animation-play-state:paused" ></path>
<path d="M1989 481L1972 260L1670 493Z" stroke="#915013" fill="#915013" style="animation-play-state:paused" ></path>
<path d="M1463 1293L1663 1256L1388 982Z" stroke="#884611" fill="#884611" style="animation-play-state:paused" ></path>
<path d="M1746 950L2018 1234L1869 903Z" stroke="#915013" fill="#915013" style="animation-play-state:paused" ></path>
<path d="M2216 960L2154 729L1869 903Z" stroke="#975514" fill="#975514" style="animation-play-state:paused" ></path>
<path d="M1869 903L2154 729L1908 742Z" stroke="#945213" fill="#945213" style="animation-play-state:paused" ></path>
<path d="M1989 481L2171 264L1972 260Z" stroke="#965414" fill="#965414" style="animation-play-state:paused" ></path>
<path d="M1221 965L1463 1293L1388 982Z" stroke="#824110" fill="#824110" style="animation-play-state:paused" ></path>
<path d="M2154 729L2157 445L1989 481Z" stroke="#975614" fill="#975614" style="animation-play-state:paused" ></path>
<path d="M919 442L956 779L1195 688Z" stroke="#72380e" fill="#72380e" style="animation-play-state:paused" ></path>
<path d="M1195 688L963 941L1221 965Z" stroke="#773b0f" fill="#773b0f" style="animation-play-state:paused" ></path>
<path d="M919 442L1195 688L1151 423Z" stroke="#753a0e" fill="#753a0e" style="animation-play-state:paused" ></path>
<path d="M900 156L919 442L1151 423Z" stroke="#70370d" fill="#70370d" style="animation-play-state:paused" ></path>
<path d="M1974 -39L1710 -52L1651 237Z" stroke="#8f4d13" fill="#8f4d13" style="animation-play-state:paused" ></path>
<path d="M1651 237L1406 -100L1441 168Z" stroke="#874511" fill="#874511" style="animation-play-state:paused" ></path>
<path d="M1710 -52L1406 -100L1651 237Z" stroke="#8a4812" fill="#8a4812" style="animation-play-state:paused" ></path>
<path d="M1173 234L900 156L1151 423Z" stroke="#74390e" fill="#74390e" style="animation-play-state:paused" ></path>
<path d="M963 941L1157 1258L1221 965Z" stroke="#763a0e" fill="#763a0e" style="animation-play-state:paused" ></path>
<path d="M1221 965L1157 1258L1463 1293Z" stroke="#7e3f10" fill="#7e3f10" style="animation-play-state:paused" ></path>
<path d="M2018 1234L2216 960L1869 903Z" stroke="#965414" fill="#965414" style="animation-play-state:paused" ></path>
<path d="M2154 729L2404 701L2157 445Z" stroke="#9b5a15" fill="#9b5a15" style="animation-play-state:paused" ></path>
<path d="M895 -1L900 156L1173 234Z" stroke="#70370d" fill="#70370d" style="animation-play-state:paused" ></path>
<path d="M956 779L963 941L1195 688Z" stroke="#73380e" fill="#73380e" style="animation-play-state:paused" ></path>
<path d="M1665 1463L2018 1234L1663 1256Z" stroke="#8f4d13" fill="#8f4d13" style="animation-play-state:paused" ></path>
<path d="M1663 1256L2018 1234L1746 950Z" stroke="#904e13" fill="#904e13" style="animation-play-state:paused" ></path>
<path d="M2387 439L2171 264L2157 445Z" stroke="#9b5a15" fill="#9b5a15" style="animation-play-state:paused" ></path>
<path d="M2157 445L2171 264L1989 481Z" stroke="#975614" fill="#975614" style="animation-play-state:paused" ></path>
<path d="M1972 260L1974 -39L1651 237Z" stroke="#914f13" fill="#914f13" style="animation-play-state:paused" ></path>
<path d="M2213 -82L1974 -39L1972 260Z" stroke="#965514" fill="#965514" style="animation-play-state:paused" ></path>
<path d="M1710 -52L1456 -275L1406 -100Z" stroke="#884611" fill="#884611" style="animation-play-state:paused" ></path>
<path d="M1406 -100L1137 -10L1173 234Z" stroke="#7c3e0f" fill="#7c3e0f" style="animation-play-state:paused" ></path>
<path d="M1447 1535L1665 1463L1463 1293Z" stroke="#884611" fill="#884611" style="animation-play-state:paused" ></path>
<path d="M1463 1293L1665 1463L1663 1256Z" stroke="#8a4812" fill="#8a4812" style="animation-play-state:paused" ></path>
<path d="M2482 970L2404 701L2154 729Z" stroke="#9e5d15" fill="#9e5d15" style="animation-play-state:paused" ></path>
<path d="M2404 701L2387 439L2157 445Z" stroke="#9d5c15" fill="#9d5c15" style="animation-play-state:paused" ></path>
<path d="M1150 1447L1447 1535L1463 1293Z" stroke="#824110" fill="#824110" style="animation-play-state:paused" ></path>
<path d="M1137 -10L895 -1L1173 234Z" stroke="#74390e" fill="#74390e" style="animation-play-state:paused" ></path>
<path d="M681 508L681 669L919 442Z" stroke="#66310b" fill="#66310b" style="animation-play-state:paused" ></path>
<path d="M963 941L938 1272L1157 1258Z" stroke="#72380e" fill="#72380e" style="animation-play-state:paused" ></path>
<path d="M1157 1258L1150 1447L1463 1293Z" stroke="#7d3e10" fill="#7d3e10" style="animation-play-state:paused" ></path>
<path d="M661 1249L938 1272L963 941Z" stroke="#6a330c" fill="#6a330c" style="animation-play-state:paused" ></path>
<path d="M919 442L681 669L956 779Z" stroke="#6a330c" fill="#6a330c" style="animation-play-state:paused" ></path>
<path d="M956 779L619 959L963 941Z" stroke="#6a330c" fill="#6a330c" style="animation-play-state:paused" ></path>
<path d="M681 508L919 442L674 168Z" stroke="#66300b" fill="#66300b" style="animation-play-state:paused" ></path>
<path d="M1406 -100L1180 -356L1137 -10Z" stroke="#7c3e0f" fill="#7c3e0f" style="animation-play-state:paused" ></path>
<path d="M1137 -10L959 -387L895 -1Z" stroke="#71370d" fill="#71370d" style="animation-play-state:paused" ></path>
<path d="M1648 -278L1456 -275L1710 -52Z" stroke="#8a4812" fill="#8a4812" style="animation-play-state:paused" ></path>
<path d="M2171 264L2213 -82L1972 260Z" stroke="#985614" fill="#985614" style="animation-play-state:paused" ></path>
<path d="M1950 -287L1648 -278L1710 -52Z" stroke="#8f4d13" fill="#8f4d13" style="animation-play-state:paused" ></path>
<path d="M2491 -49L2213 -82L2171 264Z" stroke="#9c5b15" fill="#9c5b15" style="animation-play-state:paused" ></path>
<path d="M2208 1493L2176 1271L2018 1234Z" stroke="#985714" fill="#985714" style="animation-play-state:paused" ></path>
<path d="M2018 1234L2176 1271L2216 960Z" stroke="#985714" fill="#985714" style="animation-play-state:paused" ></path>
<path d="M2216 960L2482 970L2154 729Z" stroke="#9c5b15" fill="#9c5b15" style="animation-play-state:paused" ></path>
<path d="M674 168L919 442L900 156Z" stroke="#69320c" fill="#69320c" style="animation-play-state:paused" ></path>
<path d="M1950 -287L1710 -52L1974 -39Z" stroke="#925013" fill="#925013" style="animation-play-state:paused" ></path>
<path d="M1665 1463L1962 1459L2018 1234Z" stroke="#925013" fill="#925013" style="animation-play-state:paused" ></path>
<path d="M1714 1763L1962 1459L1665 1463Z" stroke="#8f4d13" fill="#8f4d13" style="animation-play-state:paused" ></path>
<path d="M2176 1271L2482 970L2216 960Z" stroke="#9c5b15" fill="#9c5b15" style="animation-play-state:paused" ></path>
<path d="M938 1272L1150 1447L1157 1258Z" stroke="#75390e" fill="#75390e" style="animation-play-state:paused" ></path>
<path d="M2685 449L2434 236L2387 439Z" stroke="#a16116" fill="#a16116" style="animation-play-state:paused" ></path>
<path d="M2387 439L2434 236L2171 264Z" stroke="#9d5c15" fill="#9d5c15" style="animation-play-state:paused" ></path>
<path d="M661 1249L619 959L463 985Z" stroke="#5d2c0a" fill="#5d2c0a" style="animation-play-state:paused" ></path>
<path d="M681 669L619 959L956 779Z" stroke="#65300b" fill="#65300b" style="animation-play-state:paused" ></path>
<path d="M938 1272L956 1497L1150 1447Z" stroke="#72380e" fill="#72380e" style="animation-play-state:paused" ></path>
<path d="M895 -1L674 168L900 156Z" stroke="#69320c" fill="#69320c" style="animation-play-state:paused" ></path>
<path d="M1648 -278L1180 -356L1456 -275Z" stroke="#854311" fill="#854311" style="animation-play-state:paused" ></path>
<path d="M1456 -275L1180 -356L1406 -100Z" stroke="#814110" fill="#814110" style="animation-play-state:paused" ></path>
<path d="M895 -1L675 -93L674 168Z" stroke="#65300b" fill="#65300b" style="animation-play-state:paused" ></path>
<path d="M2139 -357L1950 -287L2213 -82Z" stroke="#975614" fill="#975614" style="animation-play-state:paused" ></path>
<path d="M2213 -82L1950 -287L1974 -39Z" stroke="#965414" fill="#965414" style="animation-play-state:paused" ></path>
<path d="M1648 -278L959 -387L1180 -356Z" stroke="#7d3f10" fill="#7d3f10" style="animation-play-state:paused" ></path>
<path d="M1962 1459L2208 1493L2018 1234Z" stroke="#965514" fill="#965514" style="animation-play-state:paused" ></path>
<path d="M2176 1271L2402 1280L2482 970Z" stroke="#9e5d15" fill="#9e5d15" style="animation-play-state:paused" ></path>
<path d="M2001 1809L2208 1493L1962 1459Z" stroke="#965514" fill="#965514" style="animation-play-state:paused" ></path>
<path d="M661 1514L956 1497L938 1272Z" stroke="#6a330c" fill="#6a330c" style="animation-play-state:paused" ></path>
<path d="M1436 1752L1714 1763L1447 1535Z" stroke="#884611" fill="#884611" style="animation-play-state:paused" ></path>
<path d="M1447 1535L1714 1763L1665 1463Z" stroke="#8a4812" fill="#8a4812" style="animation-play-state:paused" ></path>
<path d="M2401 1473L2402 1280L2176 1271Z" stroke="#9d5c15" fill="#9d5c15" style="animation-play-state:paused" ></path>
<path d="M2482 970L2664 707L2404 701Z" stroke="#a26216" fill="#a26216" style="animation-play-state:paused" ></path>
<path d="M2404 701L2664 707L2387 439Z" stroke="#a16116" fill="#a16116" style="animation-play-state:paused" ></path>
<path d="M619 959L661 1249L963 941Z" stroke="#65300b" fill="#65300b" style="animation-play-state:paused" ></path>
<path d="M384 691L619 959L681 669Z" stroke="#5d2b09" fill="#5d2b09" style="animation-play-state:paused" ></path>
<path d="M2434 236L2491 -49L2171 264Z" stroke="#9e5d15" fill="#9e5d15" style="animation-play-state:paused" ></path>
<path d="M959 -387L675 -93L895 -1Z" stroke="#6a330c" fill="#6a330c" style="animation-play-state:paused" ></path>
<path d="M462 456L384 691L681 508Z" stroke="#5a2a09" fill="#5a2a09" style="animation-play-state:paused" ></path>
<path d="M2491 -49L2139 -357L2213 -82Z" stroke="#9c5b15" fill="#9c5b15" style="animation-play-state:paused" ></path>
<path d="M2737 985L2664 707L2482 970Z" stroke="#a56517" fill="#a56517" style="animation-play-state:paused" ></path>
<path d="M2434 236L2715 -53L2491 -49Z" stroke="#a36316" fill="#a36316" style="animation-play-state:paused" ></path>
<path d="M1436 1752L1447 1535L1222 1787Z" stroke="#824210" fill="#824210" style="animation-play-state:paused" ></path>
<path d="M2664 707L2685 449L2387 439Z" stroke="#a46316" fill="#a46316" style="animation-play-state:paused" ></path>
<path d="M1180 -356L959 -387L1137 -10Z" stroke="#753a0e" fill="#753a0e" style="animation-play-state:paused" ></path>
<path d="M1950 -287L959 -387L1648 -278Z" stroke="#884611" fill="#884611" style="animation-play-state:paused" ></path>
<path d="M462 456L681 508L437 276Z" stroke="#5b2a09" fill="#5b2a09" style="animation-play-state:paused" ></path>
<path d="M681 508L384 691L681 669Z" stroke="#5d2c0a" fill="#5d2c0a" style="animation-play-state:paused" ></path>
<path d="M1222 1787L1447 1535L1150 1447Z" stroke="#7e3f10" fill="#7e3f10" style="animation-play-state:paused" ></path>
<path d="M437 276L681 508L674 168Z" stroke="#5e2c0a" fill="#5e2c0a" style="animation-play-state:paused" ></path>
<path d="M956 1497L1222 1787L1150 1447Z" stroke="#763a0e" fill="#763a0e" style="animation-play-state:paused" ></path>
<path d="M433 1193L463 985L109 939Z" stroke="#522506" fill="#522506" style="animation-play-state:paused" ></path>
<path d="M384 691L463 985L619 959Z" stroke="#592908" fill="#592908" style="animation-play-state:paused" ></path>
<path d="M661 1249L661 1514L938 1272Z" stroke="#65300b" fill="#65300b" style="animation-play-state:paused" ></path>
<path d="M956 1497L909 1776L1222 1787Z" stroke="#72380e" fill="#72380e" style="animation-play-state:paused" ></path>
<path d="M1714 1763L2001 1809L1962 1459Z" stroke="#925013" fill="#925013" style="animation-play-state:paused" ></path>
<path d="M2208 1493L2401 1473L2176 1271Z" stroke="#9b5a15" fill="#9b5a15" style="animation-play-state:paused" ></path>
<path d="M1436 1752L2001 1809L1714 1763Z" stroke="#8d4b12" fill="#8d4b12" style="animation-play-state:paused" ></path>
<path d="M675 -93L437 276L674 168Z" stroke="#5e2c0a" fill="#5e2c0a" style="animation-play-state:paused" ></path>
<path d="M467 -76L437 276L675 -93Z" stroke="#5b2a09" fill="#5b2a09" style="animation-play-state:paused" ></path>
<path d="M2685 449L2735 175L2434 236Z" stroke="#a56517" fill="#a56517" style="animation-play-state:paused" ></path>
<path d="M2491 -49L2509 -363L2139 -357Z" stroke="#9e5e15" fill="#9e5e15" style="animation-play-state:paused" ></path>
<path d="M2918 433L2735 175L2685 449Z" stroke="#ab6a1a" fill="#ab6a1a" style="animation-play-state:paused" ></path>
<path d="M2709 1213L2737 985L2402 1280Z" stroke="#a56517" fill="#a56517" style="animation-play-state:paused" ></path>
<path d="M2402 1280L2737 985L2482 970Z" stroke="#a26216" fill="#a26216" style="animation-play-state:paused" ></path>
<path d="M2664 707L2918 433L2685 449Z" stroke="#aa691a" fill="#aa691a" style="animation-play-state:paused" ></path>
<path d="M2477 1723L2401 1473L2208 1493Z" stroke="#9e5d15" fill="#9e5d15" style="animation-play-state:paused" ></path>
<path d="M439 1463L661 1514L661 1249Z" stroke="#5e2c0a" fill="#5e2c0a" style="animation-play-state:paused" ></path>
<path d="M2139 -357L2509 -363L1950 -287Z" stroke="#9a5914" fill="#9a5914" style="animation-play-state:paused" ></path>
<path d="M2702 -347L2509 -363L2491 -49Z" stroke="#a36316" fill="#a36316" style="animation-play-state:paused" ></path>
<path d="M959 -387L696 -243L675 -93Z" stroke="#66310c" fill="#66310c" style="animation-play-state:paused" ></path>
<path d="M1222 1787L693 1693L1436 1752Z" stroke="#763a0e" fill="#763a0e" style="animation-play-state:paused" ></path>
<path d="M661 1514L909 1776L956 1497Z" stroke="#69330c" fill="#69330c" style="animation-play-state:paused" ></path>
<path d="M2401 1473L2709 1213L2402 1280Z" stroke="#a26116" fill="#a26116" style="animation-play-state:paused" ></path>
<path d="M2001 1809L2270 1772L2208 1493Z" stroke="#995814" fill="#995814" style="animation-play-state:paused" ></path>
<path d="M2401 1473L2661 1439L2709 1213Z" stroke="#a46417" fill="#a46417" style="animation-play-state:paused" ></path>
<path d="M2678 1772L2270 1772L2001 1809Z" stroke="#9d5c15" fill="#9d5c15" style="animation-play-state:paused" ></path>
<path d="M463 985L433 1193L661 1249Z" stroke="#5b2a09" fill="#5b2a09" style="animation-play-state:paused" ></path>
<path d="M109 939L463 985L384 691Z" stroke="#522506" fill="#522506" style="animation-play-state:paused" ></path>
<path d="M2948 274L2715 -53L2735 175Z" stroke="#ac6a1b" fill="#ac6a1b" style="animation-play-state:paused" ></path>
<path d="M2735 175L2715 -53L2434 236Z" stroke="#a56517" fill="#a56517" style="animation-play-state:paused" ></path>
<path d="M696 -243L467 -76L675 -93Z" stroke="#5f2d0a" fill="#5f2d0a" style="animation-play-state:paused" ></path>
<path d="M220 518L119 771L462 456Z" stroke="#4f2307" fill="#4f2307" style="animation-play-state:paused" ></path>
<path d="M462 456L119 771L384 691Z" stroke="#522506" fill="#522506" style="animation-play-state:paused" ></path>
<path d="M2987 681L2664 707L2737 985Z" stroke="#ac6a1a" fill="#ac6a1a" style="animation-play-state:paused" ></path>
<path d="M2987 681L2918 433L2664 707Z" stroke="#ae6c1c" fill="#ae6c1c" style="animation-play-state:paused" ></path>
<path d="M3008 1025L2987 681L2737 985Z" stroke="#b06e1d" fill="#b06e1d" style="animation-play-state:paused" ></path>
<path d="M220 518L462 456L217 201Z" stroke="#512406" fill="#512406" style="animation-play-state:paused" ></path>
<path d="M217 201L462 456L437 276Z" stroke="#542607" fill="#542607" style="animation-play-state:paused" ></path>
<path d="M2270 1772L2477 1723L2208 1493Z" stroke="#9d5c15" fill="#9d5c15" style="animation-play-state:paused" ></path>
<path d="M2926 1265L2737 985L2709 1213Z" stroke="#ac6a1a" fill="#ac6a1a" style="animation-play-state:paused" ></path>
<path d="M2926 1265L3008 1025L2737 985Z" stroke="#b06d1c" fill="#b06d1c" style="animation-play-state:paused" ></path>
<path d="M400 1756L693 1693L661 1514Z" stroke="#5e2c0a" fill="#5e2c0a" style="animation-play-state:paused" ></path>
<path d="M661 1514L693 1693L909 1776Z" stroke="#65300b" fill="#65300b" style="animation-play-state:paused" ></path>
<path d="M909 1776L693 1693L1222 1787Z" stroke="#6e360d" fill="#6e360d" style="animation-play-state:paused" ></path>
<path d="M193 1467L439 1463L433 1193Z" stroke="#532606" fill="#532606" style="animation-play-state:paused" ></path>
<path d="M433 1193L439 1463L661 1249Z" stroke="#5a2a09" fill="#5a2a09" style="animation-play-state:paused" ></path>
<path d="M467 -76L217 201L437 276Z" stroke="#542607" fill="#542607" style="animation-play-state:paused" ></path>
<path d="M2477 1723L2661 1439L2401 1473Z" stroke="#a26216" fill="#a26216" style="animation-play-state:paused" ></path>
<path d="M2918 433L2948 274L2735 175Z" stroke="#af6c1c" fill="#af6c1c" style="animation-play-state:paused" ></path>
<path d="M3222 495L2948 274L2918 433Z" stroke="#b5711f" fill="#b5711f" style="animation-play-state:paused" ></path>
<path d="M2967 6L2702 -347L2715 -53Z" stroke="#ac6a1a" fill="#ac6a1a" style="animation-play-state:paused" ></path>
<path d="M2715 -53L2702 -347L2491 -49Z" stroke="#a66517" fill="#a66517" style="animation-play-state:paused" ></path>
<path d="M-48 675L109 939L119 771Z" stroke="#461e08" fill="#461e08" style="animation-play-state:paused" ></path>
<path d="M119 771L109 939L384 691Z" stroke="#4d2107" fill="#4d2107" style="animation-play-state:paused" ></path>
<path d="M696 -243L437 -308L467 -76Z" stroke="#5b2a09" fill="#5b2a09" style="animation-play-state:paused" ></path>
<path d="M467 -76L201 -78L217 201Z" stroke="#512406" fill="#512406" style="animation-play-state:paused" ></path>
<path d="M959 -387L437 -308L696 -243Z" stroke="#632f0b" fill="#632f0b" style="animation-play-state:paused" ></path>
<path d="M2948 274L2967 6L2715 -53Z" stroke="#af6d1c" fill="#af6d1c" style="animation-play-state:paused" ></path>
<path d="M109 939L212 1200L433 1193Z" stroke="#4f2307" fill="#4f2307" style="animation-play-state:paused" ></path>
<path d="M439 1463L400 1756L661 1514Z" stroke="#5a2a09" fill="#5a2a09" style="animation-play-state:paused" ></path>
<path d="M2977 1510L2926 1265L2709 1213Z" stroke="#af6c1c" fill="#af6c1c" style="animation-play-state:paused" ></path>
<path d="M3224 953L3283 727L2987 681Z" stroke="#ba7621" fill="#ba7621" style="animation-play-state:paused" ></path>
<path d="M2987 681L3222 495L2918 433Z" stroke="#b5721f" fill="#b5721f" style="animation-play-state:paused" ></path>
<path d="M150 -321L201 -78L467 -76Z" stroke="#502307" fill="#502307" style="animation-play-state:paused" ></path>
<path d="M-105 503L-48 675L220 518Z" stroke="#441d08" fill="#441d08" style="animation-play-state:paused" ></path>
<path d="M220 518L-48 675L119 771Z" stroke="#481f08" fill="#481f08" style="animation-play-state:paused" ></path>
<path d="M193 1467L400 1756L439 1463Z" stroke="#532506" fill="#532506" style="animation-play-state:paused" ></path>
<path d="M3014 1809L2977 1510L2661 1439Z" stroke="#af6d1c" fill="#af6d1c" style="animation-play-state:paused" ></path>
<path d="M2661 1439L2977 1510L2709 1213Z" stroke="#ab6a1a" fill="#ab6a1a" style="animation-play-state:paused" ></path>
<path d="M2270 1772L2678 1772L2477 1723Z" stroke="#a16016" fill="#a16016" style="animation-play-state:paused" ></path>
<path d="M2477 1723L2678 1772L2661 1439Z" stroke="#a56417" fill="#a56417" style="animation-play-state:paused" ></path>
<path d="M1436 1752L2678 1772L2001 1809Z" stroke="#965414" fill="#965414" style="animation-play-state:paused" ></path>
<path d="M3224 953L3008 1025L2926 1265Z" stroke="#b6721f" fill="#b6721f" style="animation-play-state:paused" ></path>
<path d="M3224 953L2987 681L3008 1025Z" stroke="#b77320" fill="#b77320" style="animation-play-state:paused" ></path>
<path d="M2948 274L3194 160L2967 6Z" stroke="#b5721f" fill="#b5721f" style="animation-play-state:paused" ></path>
<path d="M212 1200L193 1467L433 1193Z" stroke="#502406" fill="#502406" style="animation-play-state:paused" ></path>
<path d="M3283 727L3222 495L2987 681Z" stroke="#ba7621" fill="#ba7621" style="animation-play-state:paused" ></path>
<path d="M3240 -112L2934 -345L2967 6Z" stroke="#b6721f" fill="#b6721f" style="animation-play-state:paused" ></path>
<path d="M2967 6L2934 -345L2702 -347Z" stroke="#af6c1c" fill="#af6c1c" style="animation-play-state:paused" ></path>
<path d="M2702 -347L2934 -345L2509 -363Z" stroke="#a96819" fill="#a96819" style="animation-play-state:paused" ></path>
<path d="M2509 -363L2934 -345L1950 -287Z" stroke="#a16016" fill="#a16016" style="animation-play-state:paused" ></path>
<path d="M109 939L-89 922L212 1200Z" stroke="#471e08" fill="#471e08" style="animation-play-state:paused" ></path>
<path d="M212 1200L-32 1202L193 1467Z" stroke="#491f07" fill="#491f07" style="animation-play-state:paused" ></path>
<path d="M-105 503L220 518L217 201Z" stroke="#481f08" fill="#481f08" style="animation-play-state:paused" ></path>
<path d="M437 -308L150 -321L467 -76Z" stroke="#532606" fill="#532606" style="animation-play-state:paused" ></path>
<path d="M-134 180L-105 503L217 201Z" stroke="#431c08" fill="#431c08" style="animation-play-state:paused" ></path>
<path d="M959 -387L150 -321L437 -308Z" stroke="#5a2a09" fill="#5a2a09" style="animation-play-state:paused" ></path>
<path d="M-134 180L217 201L201 -78Z" stroke="#481e08" fill="#481e08" style="animation-play-state:paused" ></path>
<path d="M3269 1222L3224 953L2926 1265Z" stroke="#b97521" fill="#b97521" style="animation-play-state:paused" ></path>
<path d="M3222 495L3194 160L2948 274Z" stroke="#b87421" fill="#b87421" style="animation-play-state:paused" ></path>
<path d="M-361 951L-89 922L-48 675Z" stroke="#3c1808" fill="#3c1808" style="animation-play-state:paused" ></path>
<path d="M-48 675L-89 922L109 939Z" stroke="#431c08" fill="#431c08" style="animation-play-state:paused" ></path>
<path d="M-58 -29L-134 180L201 -78Z" stroke="#441c08" fill="#441c08" style="animation-play-state:paused" ></path>
<path d="M-105 503L-372 736L-48 675Z" stroke="#3b1808" fill="#3b1808" style="animation-play-state:paused" ></path>
<path d="M-89 922L-32 1202L212 1200Z" stroke="#451d08" fill="#451d08" style="animation-play-state:paused" ></path>
<path d="M3504 -11L3240 -112L3194 160Z" stroke="#c07a24" fill="#c07a24" style="animation-play-state:paused" ></path>
<path d="M3194 160L3240 -112L2967 6Z" stroke="#b97521" fill="#b97521" style="animation-play-state:paused" ></path>
<path d="M3208 1480L2926 1265L2977 1510Z" stroke="#b5721f" fill="#b5721f" style="animation-play-state:paused" ></path>
<path d="M3208 1480L3269 1222L2926 1265Z" stroke="#b97521" fill="#b97521" style="animation-play-state:paused" ></path>
<path d="M3224 953L3402 654L3283 727Z" stroke="#bf7a24" fill="#bf7a24" style="animation-play-state:paused" ></path>
<path d="M3283 727L3402 654L3222 495Z" stroke="#bf7a24" fill="#bf7a24" style="animation-play-state:paused" ></path>
<path d="M3222 495L3541 226L3194 160Z" stroke="#c07a24" fill="#c07a24" style="animation-play-state:paused" ></path>
<path d="M-125 -348L-58 -29L201 -78Z" stroke="#441c08" fill="#441c08" style="animation-play-state:paused" ></path>
<path d="M-142 1548L204 1765L193 1467Z" stroke="#471e08" fill="#471e08" style="animation-play-state:paused" ></path>
<path d="M193 1467L204 1765L400 1756Z" stroke="#4f2307" fill="#4f2307" style="animation-play-state:paused" ></path>
<path d="M400 1756L204 1765L693 1693Z" stroke="#572808" fill="#572808" style="animation-play-state:paused" ></path>
<path d="M2678 1772L3014 1809L2661 1439Z" stroke="#ab6a1a" fill="#ab6a1a" style="animation-play-state:paused" ></path>
<path d="M3170 1673L3208 1480L2977 1510Z" stroke="#b87421" fill="#b87421" style="animation-play-state:paused" ></path>
<path d="M-32 1202L-142 1548L193 1467Z" stroke="#441c08" fill="#441c08" style="animation-play-state:paused" ></path>
<path d="M-304 1552L-142 1548L-32 1202Z" stroke="#3c1808" fill="#3c1808" style="animation-play-state:paused" ></path>
<path d="M3461 1018L3224 953L3269 1222Z" stroke="#c07a24" fill="#c07a24" style="animation-play-state:paused" ></path>
<path d="M3461 1018L3402 654L3224 953Z" stroke="#c27c25" fill="#c27c25" style="animation-play-state:paused" ></path>
<path d="M3504 -11L3227 -276L3240 -112Z" stroke="#c07b24" fill="#c07b24" style="animation-play-state:paused" ></path>
<path d="M3240 -112L3227 -276L2934 -345Z" stroke="#b97521" fill="#b97521" style="animation-play-state:paused" ></path>
<path d="M-323 -275L-125 -348L150 -321Z" stroke="#3f1a08" fill="#3f1a08" style="animation-play-state:paused" ></path>
<path d="M150 -321L-125 -348L201 -78Z" stroke="#471e08" fill="#471e08" style="animation-play-state:paused" ></path>
<path d="M-322 199L-340 479L-134 180Z" stroke="#371607" fill="#371607" style="animation-play-state:paused" ></path>
<path d="M-322 199L-134 180L-295 -80Z" stroke="#381607" fill="#381607" style="animation-play-state:paused" ></path>
<path d="M-134 180L-340 479L-105 503Z" stroke="#3b1707" fill="#3b1707" style="animation-play-state:paused" ></path>
<path d="M-89 922L-361 951L-32 1202Z" stroke="#3c1808" fill="#3c1808" style="animation-play-state:paused" ></path>
<path d="M3402 654L3501 420L3222 495Z" stroke="#c27c25" fill="#c27c25" style="animation-play-state:paused" ></path>
<path d="M-340 479L-372 736L-105 503Z" stroke="#371607" fill="#371607" style="animation-play-state:paused" ></path>
<path d="M-372 736L-361 951L-48 675Z" stroke="#371607" fill="#371607" style="animation-play-state:paused" ></path>
<path d="M3528 1193L3461 1018L3269 1222Z" stroke="#c47e26" fill="#c47e26" style="animation-play-state:paused" ></path>
<path d="M3402 654L3461 1018L3501 420Z" stroke="#c57f27" fill="#c57f27" style="animation-play-state:paused" ></path>
<path d="M3501 420L3541 226L3222 495Z" stroke="#c47e26" fill="#c47e26" style="animation-play-state:paused" ></path>
<path d="M-295 -80L-134 180L-58 -29Z" stroke="#3c1808" fill="#3c1808" style="animation-play-state:paused" ></path>
<path d="M-340 479L-635 433L-372 736Z" stroke="#2f1205" fill="#2f1205" style="animation-play-state:paused" ></path>
<path d="M3014 1809L3170 1673L2977 1510Z" stroke="#b6721f" fill="#b6721f" style="animation-play-state:paused" ></path>
<path d="M3529 1453L3528 1193L3269 1222Z" stroke="#c57e27" fill="#c57e27" style="animation-play-state:paused" ></path>
<path d="M3541 226L3504 -11L3194 160Z" stroke="#c47d26" fill="#c47d26" style="animation-play-state:paused" ></path>
<path d="M3529 1453L3269 1222L3208 1480Z" stroke="#c17b25" fill="#c17b25" style="animation-play-state:paused" ></path>
<path d="M3461 1018L3532 1729L3501 420Z" stroke="#c78028" fill="#c78028" style="animation-play-state:paused" ></path>
<path d="M-304 1552L-174 1782L-142 1548Z" stroke="#3a1707" fill="#3a1707" style="animation-play-state:paused" ></path>
<path d="M-142 1548L-174 1782L204 1765Z" stroke="#421b08" fill="#421b08" style="animation-play-state:paused" ></path>
<path d="M-587 1186L-334 1289L-361 951Z" stroke="#301206" fill="#301206" style="animation-play-state:paused" ></path>
<path d="M-361 951L-334 1289L-32 1202Z" stroke="#381607" fill="#381607" style="animation-play-state:paused" ></path>
<path d="M-125 -348L-295 -80L-58 -29Z" stroke="#3c1808" fill="#3c1808" style="animation-play-state:paused" ></path>
<path d="M3170 1673L3529 1453L3208 1480Z" stroke="#bf7a24" fill="#bf7a24" style="animation-play-state:paused" ></path>
<path d="M3528 1193L3532 1729L3461 1018Z" stroke="#c78028" fill="#c78028" style="animation-play-state:paused" ></path>
<path d="M-334 1289L-304 1552L-32 1202Z" stroke="#391707" fill="#391707" style="animation-play-state:paused" ></path>
<path d="M3501 420L3452 -307L3541 226Z" stroke="#c78028" fill="#c78028" style="animation-play-state:paused" ></path>
<path d="M3541 226L3452 -307L3504 -11Z" stroke="#c78028" fill="#c78028" style="animation-play-state:paused" ></path>
<path d="M3504 -11L3452 -307L3227 -276Z" stroke="#c37d26" fill="#c37d26" style="animation-play-state:paused" ></path>
<path d="M3227 -276L3452 -307L2934 -345Z" stroke="#bc7722" fill="#bc7722" style="animation-play-state:paused" ></path>
<path d="M959 -387L-323 -275L150 -321Z" stroke="#4f2307" fill="#4f2307" style="animation-play-state:paused" ></path>
<path d="M-125 -348L-323 -275L-295 -80Z" stroke="#381607" fill="#381607" style="animation-play-state:paused" ></path>
<path d="M-572 168L-635 433L-322 199Z" stroke="#2c1105" fill="#2c1105" style="animation-play-state:paused" ></path>
<path d="M-572 168L-322 199L-587 -2Z" stroke="#2d1105" fill="#2d1105" style="animation-play-state:paused" ></path>
<path d="M-322 199L-635 433L-340 479Z" stroke="#2f1206" fill="#2f1206" style="animation-play-state:paused" ></path>
<path d="M-372 736L-682 1013L-361 951Z" stroke="#2e1105" fill="#2e1105" style="animation-play-state:paused" ></path>
<path d="M-334 1289L-645 1419L-304 1552Z" stroke="#301206" fill="#301206" style="animation-play-state:paused" ></path>
<path d="M-635 433L-663 761L-372 736Z" stroke="#2a1004" fill="#2a1004" style="animation-play-state:paused" ></path>
<path d="M3014 1809L3532 1729L3170 1673Z" stroke="#bd7823" fill="#bd7823" style="animation-play-state:paused" ></path>
<path d="M3170 1673L3532 1729L3529 1453Z" stroke="#c47d26" fill="#c47d26" style="animation-play-state:paused" ></path>
<path d="M3529 1453L3532 1729L3528 1193Z" stroke="#c88128" fill="#c88128" style="animation-play-state:paused" ></path>
<path d="M2678 1772L3532 1729L3014 1809Z" stroke="#b77320" fill="#b77320" style="animation-play-state:paused" ></path>
<path d="M-663 761L-682 1013L-372 736Z" stroke="#290f04" fill="#290f04" style="animation-play-state:paused" ></path>
<path d="M-587 -2L-322 199L-295 -80Z" stroke="#311306" fill="#311306" style="animation-play-state:paused" ></path>
<path d="M-635 433L-572 168L-663 761Z" stroke="#270e03" fill="#270e03" style="animation-play-state:paused" ></path>
<path d="M-663 761L-572 168L-682 1013Z" stroke="#260e03" fill="#260e03" style="animation-play-state:paused" ></path>
<path d="M-645 1419L-379 1669L-304 1552Z" stroke="#2f1205" fill="#2f1205" style="animation-play-state:paused" ></path>
<path d="M-304 1552L-379 1669L-174 1782Z" stroke="#361507" fill="#361507" style="animation-play-state:paused" ></path>
<path d="M-174 1782L-556 1727L204 1765Z" stroke="#3b1808" fill="#3b1808" style="animation-play-state:paused" ></path>
<path d="M-572 168L-587 1186L-682 1013Z" stroke="#270e03" fill="#270e03" style="animation-play-state:paused" ></path>
<path d="M-682 1013L-587 1186L-361 951Z" stroke="#2a1004" fill="#2a1004" style="animation-play-state:paused" ></path>
<path d="M-545 -347L-587 -2L-295 -80Z" stroke="#2d1105" fill="#2d1105" style="animation-play-state:paused" ></path>
<path d="M-323 -275L-545 -347L-295 -80Z" stroke="#311306" fill="#311306" style="animation-play-state:paused" ></path>
<path d="M-587 1186L-645 1419L-334 1289Z" stroke="#2b1004" fill="#2b1004" style="animation-play-state:paused" ></path>
<path d="M-645 1419L-556 1727L-379 1669Z" stroke="#2b1004" fill="#2b1004" style="animation-play-state:paused" ></path>
<path d="M-379 1669L-556 1727L-174 1782Z" stroke="#321306" fill="#321306" style="animation-play-state:paused" ></path>
<path d="M204 1765L-556 1727L693 1693Z" stroke="#491f08" fill="#491f08" style="animation-play-state:paused" ></path>
<path d="M693 1693L-556 1727L1436 1752Z" stroke="#5b2a09" fill="#5b2a09" style="animation-play-state:paused" ></path>
<path d="M1436 1752L-556 1727L2678 1772Z" stroke="#7a3c0f" fill="#7a3c0f" style="animation-play-state:paused" ></path></g>
<style type="text/css" style="animation-play-state:paused" >#bk-0.5874585094086672 path { stroke-width: 1 }</style></g></svg>